<?xml version="1.0" encoding="UTF-8" standalone="no"?>
<!-- Created with Inkscape (http://www.inkscape.org/) -->

<svg
   xmlns:dc="http://purl.org/dc/elements/1.1/"
   xmlns:cc="http://creativecommons.org/ns#"
   xmlns:rdf="http://www.w3.org/1999/02/22-rdf-syntax-ns#"
   xmlns:svg="http://www.w3.org/2000/svg"
   xmlns="http://www.w3.org/2000/svg"
   xmlns:sodipodi="http://sodipodi.sourceforge.net/DTD/sodipodi-0.dtd"
   xmlns:inkscape="http://www.inkscape.org/namespaces/inkscape"
   width="210mm"
   height="297mm"
   viewBox="0 0 744.09448819 1052.3622047"
   id="svg2"
   version="1.1"
   inkscape:version="0.91 r13725"
   sodipodi:docname="texto.svg">
  <defs
     id="defs4" />
  <sodipodi:namedview
     id="base"
     pagecolor="#ffffff"
     bordercolor="#666666"
     borderopacity="1.0"
     inkscape:pageopacity="0.0"
     inkscape:pageshadow="2"
     inkscape:zoom="2.8"
     inkscape:cx="-6.9284075"
     inkscape:cy="1025.9356"
     inkscape:document-units="px"
     inkscape:current-layer="layer1"
     showgrid="false"
     inkscape:window-width="1366"
     inkscape:window-height="705"
     inkscape:window-x="0"
     inkscape:window-y="27"
     inkscape:window-maximized="1"
     inkscape:snap-page="true"
     inkscape:snap-bbox="true"
     inkscape:snap-bbox-edge-midpoints="true"
     inkscape:snap-bbox-midpoints="true"
     inkscape:snap-smooth-nodes="true"
     inkscape:object-nodes="true"
     inkscape:snap-intersection-paths="true"
     inkscape:snap-object-midpoints="true"
     inkscape:snap-to-guides="false"
     inkscape:snap-center="true" />
  <metadata
     id="metadata7">
    <rdf:RDF>
      <cc:Work
         rdf:about="">
        <dc:format>image/svg+xml</dc:format>
        <dc:type
           rdf:resource="http://purl.org/dc/dcmitype/StillImage" />
        <dc:title></dc:title>
      </cc:Work>
    </rdf:RDF>
  </metadata>
  <g
     inkscape:label="Capa 1"
     inkscape:groupmode="layer"
     id="layer1">
    <path
       style="color:#000000;font-style:normal;font-variant:normal;font-weight:600;font-stretch:normal;font-size:22.49999809px;line-height:0%;font-family:FreeSans;-inkscape-font-specification:'FreeSans Semi-Bold';text-indent:0;text-align:start;text-decoration:none;text-decoration-line:none;text-decoration-style:solid;text-decoration-color:#000000;letter-spacing:0px;word-spacing:0px;text-transform:none;direction:ltr;block-progression:tb;writing-mode:lr-tb;baseline-shift:baseline;text-anchor:start;white-space:normal;clip-rule:nonzero;display:inline;overflow:visible;visibility:visible;opacity:1;isolation:auto;mix-blend-mode:normal;color-interpolation:sRGB;color-interpolation-filters:linearRGB;solid-color:#000000;solid-opacity:1;fill:#000000;fill-opacity:1;fill-rule:nonzero;stroke:none;stroke-width:0;stroke-linecap:butt;stroke-linejoin:miter;stroke-miterlimit:4;stroke-dasharray:none;stroke-dashoffset:0;stroke-opacity:1;color-rendering:auto;image-rendering:auto;shape-rendering:auto;text-rendering:auto;enable-background:accumulate"
       d="m 24.033194,-8.52465 c -2.164289,0 -3.836869,0.7413 -5.011709,2.2246 -1.17488,1.4759 -1.76172,3.5797 -1.76172,6.3066 0,2.7196 0.58688,4.8215 1.76172,6.3047 1.17485,1.4759 2.84744,2.2129 5.011709,2.2129 2.15697,0 3.82515,-0.737 5,-2.2129 1.17484,-1.4832 1.76172,-3.5851 1.76172,-6.3047 0,-2.7269 -0.58685,-4.8307 -1.76172,-6.3066 -1.17483,-1.4833 -2.84301,-2.2246 -5,-2.2246 z m 16.875011,0.022 c -2.38385,0 -4.26404,0.7778 -5.63671,2.3339 -1.365381,1.5489 -2.046881,3.6819 -2.046881,6.3946 0,2.6464 0.58245,4.694 1.750001,6.1406 1.17488,1.4392 2.83186,2.1582 4.9668,2.1582 1.9365,0 3.48352,-0.5282 4.63672,-1.5859 1.15313,-1.065 1.72851,-2.479 1.72851,-4.2403 0,-1.5928 -0.51689,-2.8847 -1.55273,-3.8691 -1.02854,-0.9845 -2.38604,-1.4766 -4.06641,-1.4766 -0.66797,0 -1.28388,0.092 -1.84961,0.2754 -0.55451,0.1729 -1.06814,0.4398 -1.54492,0.7891 0.12072,-1.3579 0.52667,-2.3816 1.2207,-3.0684 0.69975,-0.6997 1.67681,-1.0508 2.9336,-1.0508 0.58447,0 1.18284,0.081 1.79687,0.2422 0.614,0.1535 1.26787,0.3935 1.96289,0.7227 l 0.0234,0.012 0,-3.0684 -0.01,0 c -0.69659,-0.2346 -1.40197,-0.4119 -2.11328,-0.5293 -0.71134,-0.1173 -1.44399,-0.1758 -2.19922,-0.1758 z m -16.875011,0.01 c 2.14966,0 3.8057,0.7371 4.97461,2.2128 l 0,0 c 1.16888,1.4685 1.75586,3.5629 1.75586,6.2852 0,2.715 -0.58694,4.8094 -1.75586,6.2852 -1.1689,1.4684 -2.82493,2.2011 -4.97461,2.2011 -2.157009,0 -3.817429,-0.7327 -4.986319,-2.2011 -1.16892,-1.4758 -1.75391,-3.5702 -1.75391,-6.2852 0,-2.7223 0.58503,-4.8167 1.75391,-6.2852 l 0,0 c 1.1689,-1.4757 2.82933,-2.2128 4.986319,-2.2128 z m 16.875011,0.023 c 0.75357,0 1.48576,0.057 2.19532,0.1738 0.70633,0.1165 1.40381,0.2929 2.0957,0.5254 l 0,2.998 c -0.68813,-0.3245 -1.33752,-0.5663 -1.94727,-0.7187 -0.61643,-0.1615 -1.21728,-0.2422 -1.80468,-0.2422 -1.26275,0 -2.25053,0.3521 -2.95704,1.0586 -0.70655,0.6992 -1.11697,1.7397 -1.23437,3.1191 l -0.004,0.035 0.0293,-0.021 c 0.48201,-0.3578 1.00416,-0.6236 1.56641,-0.7988 0.5622,-0.1825 1.1748,-0.2735 1.83984,-0.2735 1.67413,0 3.02073,0.4884 4.04297,1.4668 1.02959,0.9785 1.54492,2.2599 1.54492,3.8457 0,1.7544 -0.57208,3.1578 -1.71875,4.2168 -1.14661,1.0517 -2.68455,1.5782 -4.61523,1.5782 -2.12776,0 -3.77449,-0.7146 -4.94336,-2.1465 -1.161551,-1.4392 -1.742191,-3.4794 -1.742191,-6.1211 0,-2.7073 0.67983,-4.8311 2.039061,-6.3731 1.36659,-1.5492 3.23639,-2.3222 5.61328,-2.3222 z m -87.21485,0.242 0,0.016 0,16.418 4.26172,0 0,-6.4375 6.50391,6.4375 5.33984,0 -8.72656,-8.6504 7.91406,-7.7832 -4.95508,0 -6.07617,5.9649 0,-5.9649 -4.26172,0 z m 17.44727,0 0,16.4336 7.03515,0 c 2.18452,0 3.81515,-0.3866 4.88867,-1.166 1.07352,-0.7794 1.60938,-1.9651 1.60938,-3.5508 0,-1.0353 -0.24986,-1.9115 -0.75,-2.625 -0.49551,-0.7068 -1.19869,-1.1869 -2.09766,-1.4531 0.70028,-0.2721 1.24432,-0.6777 1.61524,-1.2305 0.37545,-0.5668 0.5625,-1.2519 0.5625,-2.0527 0,-1.5197 -0.51502,-2.6288 -1.54492,-3.3203 -1.02266,-0.6916 -2.67369,-1.0352 -4.95313,-1.0352 l -6.36523,0 z m 17.13867,0 0,0.016 0,16.418 11.6875,0 0,-3.2285 -7.42578,0 0,-13.2051 -4.26172,0 z m 19.84765,0 -0.004,0.01 -6.57227,9.793 0,3.6465 7.27149,0 0,2.9883 4.03125,0 0,-2.9883 2.33984,0 0,-3.0957 -2.33984,0 0,-10.3496 -4.72657,0 z m -54.40039,0.031 4.19727,0 0,6.0098 6.11914,-6.0098 4.86523,0 -7.88281,7.752 8.69727,8.6191 -5.25,0 -6.54883,-6.4824 0,6.4824 -4.19727,0 0,-16.3711 z m 17.44532,0 6.33398,0 c 2.27622,0 3.92207,0.3459 4.93555,1.0313 1.02087,0.6854 1.53125,1.7805 1.53125,3.293 0,0.7958 -0.18698,1.474 -0.5586,2.0351 -0.37159,0.5538 -0.90927,0.9644 -1.61718,1.2344 l -0.0449,0.018 0.0449,0.014 c 0.90526,0.2628 1.6056,0.7476 2.10156,1.4551 0.49595,0.7074 0.74414,1.5753 0.74414,2.6054 0,1.5785 -0.5325,2.7501 -1.59766,3.5235 -1.06515,0.7733 -2.68842,1.1621 -4.86914,1.1621 l -7.0039,0 0,-16.3711 z m 17.13867,0 4.19726,0 0,13.2051 7.42774,0 0,3.166 -11.625,0 0,-16.3711 z m 19.83398,0 4.67774,0 0,10.3496 2.33984,0 0,3.0333 -2.33984,0 0,2.9882 -3.9668,0 0,-2.9882 -7.27344,0 0,-3.6055 6.5625,-9.7774 z m 15.888669,2.5606 c -0.91315,0 -1.56881,0.4268 -1.958979,1.2734 -0.3903,0.8395 -0.58398,2.2842 -0.58399,4.336 0,2.0737 0.19376,3.5345 0.58399,4.3886 0.390139,0.8539 1.045789,1.2852 1.958979,1.2852 0.90591,0 1.55714,-0.4313 1.94727,-1.2852 0.39023,-0.8541 0.58398,-2.3149 0.58398,-4.3886 0,-2.0518 -0.19369,-3.4965 -0.58398,-4.336 -0.38283,-0.8466 -1.03412,-1.2734 -1.94727,-1.2734 z m 0,0.033 c 0.90326,0 1.54103,0.416 1.91993,1.2539 0.38607,0.8304 0.58007,2.2725 0.58007,4.3223 0,2.0717 -0.19393,3.5318 -0.58007,4.3769 -0.38624,0.8454 -1.02408,1.2637 -1.91993,1.2637 -0.90321,0 -1.54346,-0.4184 -1.929679,-1.2637 -0.38614,-0.8451 -0.58203,-2.3052 -0.58203,-4.3769 0,-2.0498 0.19595,-3.4919 0.58203,-4.3223 0.386189,-0.838 1.026429,-1.2539 1.929679,-1.2539 z m -48.664059,0.2539 0,3.5019 2.35742,0 c 0.66885,0 1.17727,-0.1451 1.52539,-0.4414 0.34815,-0.2963 0.52149,-0.734 0.52149,-1.3086 0,-0.5672 -0.17339,-1.0025 -0.52149,-1.2988 -0.34809,-0.3036 -0.85648,-0.4531 -1.52539,-0.4531 l -2.35742,0 z m 0.0332,0.031 2.32422,0 c 0.6641,0 1.16353,0.1503 1.50391,0.4473 l 0.002,0 c 0.34038,0.2896 0.50977,0.7127 0.50977,1.2734 0,0.5681 -0.16944,0.9936 -0.50977,1.2832 -0.34035,0.2897 -0.8417,0.4355 -1.50586,0.4355 l -2.32422,0 0,-3.4394 z m 33.45313,0.5352 -0.0293,0.045 -0.004,0.01 -4.65039,6.8828 4.68359,0 0,-6.9356 z m -0.0332,0.1054 0,6.7988 -4.58985,0 4.58985,-6.7988 z m 31.16212,4.7539 c -0.74324,0 -1.30499,0.245 -1.68165,0.7324 -0.36937,0.4802 -0.55273,1.2006 -0.55273,2.1622 0,0.9615 0.18345,1.6863 0.55273,2.1738 0.37671,0.4801 0.93847,0.7207 1.68165,0.7207 0.75046,0 1.31417,-0.2405 1.68359,-0.7207 0.37667,-0.4875 0.56445,-1.2123 0.56445,-2.1738 0,-0.9616 -0.18769,-1.682 -0.56445,-2.1622 -0.36937,-0.4875 -0.93307,-0.7324 -1.68359,-0.7324 z m 0,0.033 c 0.74361,0 1.29515,0.2396 1.6582,0.7188 0.37031,0.4719 0.55664,1.1852 0.55664,2.1426 0,0.9574 -0.18624,1.6749 -0.55664,2.1543 -0.36301,0.4719 -0.91453,0.7089 -1.6582,0.7089 -0.73632,0 -1.28589,-0.2369 -1.65625,-0.7089 -0.36314,-0.4794 -0.54688,-1.1969 -0.54688,-2.1543 0,-0.9575 0.18383,-1.6707 0.54688,-2.1426 0.37041,-0.4794 0.91998,-0.7188 1.65625,-0.7188 z m -64.61525,0.8907 0,4.3281 2.5,0 c 0.85186,0 1.49305,-0.1807 1.92188,-0.543 0.4362,-0.3623 0.65429,-0.9104 0.65429,-1.6387 0,-0.7136 -0.21565,-1.2505 -0.64453,-1.6054 -0.42885,-0.3623 -1.07247,-0.541 -1.93164,-0.541 l -2.5,0 z m 0.0332,0.031 2.4668,0 c 0.8547,0 1.49136,0.1796 1.91211,0.5351 0.42073,0.3482 0.63086,0.8728 0.63086,1.5801 0,0.7219 -0.21452,1.2578 -0.64258,1.6133 l 0,0 c -0.42079,0.3555 -1.05303,0.5332 -1.90039,0.5332 l -2.4668,0 0,-4.2637 z"
       id="text4136"
       inkscape:connector-curvature="0" />
  </g>
</svg>
