<?xml version="1.0" encoding="UTF-8" standalone="no"?>
<!-- Created with Inkscape (http://www.inkscape.org/) -->

<svg
   xmlns:dc="http://purl.org/dc/elements/1.1/"
   xmlns:cc="http://creativecommons.org/ns#"
   xmlns:rdf="http://www.w3.org/1999/02/22-rdf-syntax-ns#"
   xmlns:svg="http://www.w3.org/2000/svg"
   xmlns="http://www.w3.org/2000/svg"
   xmlns:sodipodi="http://sodipodi.sourceforge.net/DTD/sodipodi-0.dtd"
   xmlns:inkscape="http://www.inkscape.org/namespaces/inkscape"
   id="svg2"
   sodipodi:docname="somar501-Toponimia-de-Autlan.svg"
   inkscape:export-ydpi="90"
   inkscape:export-filename="G:\Documents and Settings\miguel\My Documents\poncho\imagenes\autlan.png"
   viewBox="0 0 241.29 149.97"
   sodipodi:version="0.32"
   inkscape:export-xdpi="90"
   version="1.0"
   inkscape:output_extension="org.inkscape.output.svg.inkscape"
   inkscape:version="0.91 r13725">
  <defs
     id="defs35" />
  <sodipodi:namedview
     id="base"
     bordercolor="#666666"
     inkscape:pageshadow="2"
     guidetolerance="10"
     pagecolor="#ffffff"
     gridtolerance="10000"
     inkscape:window-height="705"
     inkscape:zoom="2.8284271"
     objecttolerance="10"
     borderopacity="1.0"
     inkscape:current-layer="layer1"
     inkscape:cx="111.15864"
     inkscape:cy="86.297786"
     inkscape:window-y="27"
     inkscape:window-x="0"
     inkscape:window-width="1366"
     inkscape:pageopacity="0.0"
     inkscape:document-units="px"
     showgrid="false"
     inkscape:window-maximized="1" />
  <g
     id="layer1"
     inkscape:label="Layer 1"
     inkscape:groupmode="layer"
     transform="translate(-211.85 -252.72)">
    <g
       id="g3262"
       style="fill:#ffffff">
      <path
         inkscape:connector-curvature="0"
         d="m 235.22,313.32 c 0,0 0.19,-0.29 7.68,-0.77 -11.13,-12.95 -9.66,-27.77 2.49,-28.4 8.72,-0.45 14.7,5.48 17.46,11.13 6.84,14.02 16.02,13.14 28.39,12.66 -15.44,-13.14 -10.98,-26.47 0.77,-26.47 7.9,0 13.65,3.26 18.42,12.47 6.78,13.07 15.73,11.79 34.15,12.47 -9.05,-9.16 -8.53,-28.02 6.14,-27.25 14.31,0.76 16.22,9.12 18.8,13.43 3.41,5.72 5.83,16.56 21.88,16.12 -10.17,-9.66 -10.61,-28.57 4.22,-28.39 9.59,0.11 15.42,12.53 18.03,18.8 5.74,13.76 15.73,11.51 15.73,11.51 l -3.83,12.28 -188.41,-2.69 -1.92,-6.9 z"
         style="color:#000000;fill:#ffffff;fill-rule:evenodd;stroke:#000000;stroke-width:3;stroke-linejoin:round"
         sodipodi:nodetypes="ccsscsscsscsscccc"
         id="path3194" />
      <path
         inkscape:connector-curvature="0"
         d="m 293.16,292.23 c 6.43,10.4 13.67,21.62 31.66,28.41"
         style="fill:#ffffff;stroke:#000000;stroke-width:3;stroke-linecap:round;stroke-linejoin:round"
         sodipodi:nodetypes="cc"
         id="path3240" />
      <path
         inkscape:connector-curvature="0"
         d="m 248.65,296.62 c 3.13,11.84 14.33,23.9 24.37,23.65"
         style="color:#000000;fill:#ffffff;stroke:#000000;stroke-width:3;stroke-linecap:round;stroke-linejoin:round"
         sodipodi:nodetypes="cc"
         id="path3196" />
      <path
         inkscape:connector-curvature="0"
         d="m 381.43,321.31 c -13.64,-1.23 -25.96,-18.73 -28.12,-25.55"
         style="fill:#ffffff;stroke:#000000;stroke-width:3;stroke-linecap:round;stroke-linejoin:round"
         sodipodi:nodetypes="cc"
         id="path3242" />
      <path
         inkscape:connector-curvature="0"
         d="m 416.47,321.67 c -6.08,-0.58 -16.29,-15.01 -18.03,-23.85"
         style="fill:#ffffff;stroke:#000000;stroke-width:3;stroke-linecap:round;stroke-linejoin:round"
         sodipodi:nodetypes="cc"
         id="path3244" />
    </g>
    <ellipse
       ry="10.646297"
       rx="11.413824"
       cy="273.21606"
       cx="243.85565"
       style="color:#000000;fill:#ffffff;fill-rule:evenodd;stroke:#000000;stroke-width:2.81200147;stroke-linejoin:round"
       id="path3198" />
    <path
       inkscape:connector-curvature="0"
       d="m 236.35,319.88 22.04,58.15 147.71,0.93 21.57,-57.21 -191.32,-1.87 z"
       style="color:#000000;fill:#ffffff;fill-rule:evenodd;stroke:#000000;stroke-width:3;stroke-linejoin:round"
       id="path3210" />
    <path
       inkscape:connector-curvature="0"
       d="m 254.6,364.73 157.32,0.58 -2.11,4.99 -154.44,0 -0.77,-5.57 z"
       style="color:#000000;fill:#000000;fill-rule:evenodd;stroke:#000000;stroke-width:3;stroke-linejoin:round"
       sodipodi:nodetypes="ccccc"
       id="path3216" />
    <path
       inkscape:connector-curvature="0"
       d="m 247.88,347.66 169.8,0.38 -1.92,6.91 -165.96,-1.54 -1.92,-5.75 z"
       style="color:#000000;fill:#000000;fill-rule:evenodd;stroke:#000000;stroke-width:3;stroke-linejoin:round"
       id="path3214" />
    <path
       inkscape:connector-curvature="0"
       d="m 241.74,330.39 181.7,0.38 -2.5,6.91 -177.85,-0.77 -1.35,-6.52 z"
       style="color:#000000;fill:#000000;fill-rule:evenodd;stroke:#000000;stroke-width:3;stroke-linejoin:round"
       id="path3212" />
    <ellipse
       ry="10.456395"
       rx="11.799418"
       cy="267.74881"
       cx="351.39246"
       style="color:#000000;fill:#ffffff;fill-rule:evenodd;stroke:#000000;stroke-width:3;stroke-linejoin:round"
       id="path3204" />
    <ellipse
       ry="4.0290699"
       rx="4.3168607"
       cy="268.61218"
       cx="351.39246"
       style="color:#000000;fill:#ffffff;fill-rule:evenodd;stroke:#000000;stroke-width:3;stroke-linejoin:round"
       id="path3202" />
    <ellipse
       ry="3.4534883"
       rx="4.4127908"
       cy="274.17615"
       cx="244.04651"
       style="color:#000000;fill:#ffffff;fill-rule:evenodd;stroke:#000000;stroke-width:3;stroke-linejoin:round"
       id="path3200" />
    <path
       inkscape:connector-curvature="0"
       d="m 213.35,307.18 20.72,0.38 24.17,69.07 147.35,1.53 24.94,-71.75 21.11,0.38 -29.16,94.4 -179.58,-1.54 -29.55,-92.47 z"
       style="color:#000000;fill:#ffffff;fill-rule:evenodd;stroke:#000000;stroke-width:3;stroke-linejoin:round"
       id="path2221" />
    <path
       inkscape:connector-curvature="0"
       d="m 292.59,269.76 c -2.33,0.66 -0.91,7.1 1.53,6.33 5.55,-1.84 5.29,-10.41 5.76,-19.95 0.05,-0.98 1.22,-1.98 2.3,-1.92 2.04,0.11 2.63,0.9 2.69,1.92 0.25,4.46 0,8.95 0,13.43 -0.19,9.3 -6.64,11.8 -12.86,11.9 -4.53,-0.16 -9.41,-4.78 -9.02,-9.98 0.43,-5.5 5.02,-10.04 9.02,-10.17 3.84,-0.12 7.01,4.18 6.33,9.62 -0.45,3.57 -3.82,5.09 -4.22,5.1 -2.94,0.02 -3.84,-5.62 -1.53,-6.28 z"
       style="color:#000000;fill:#ffffff;fill-rule:evenodd;stroke:#000000;stroke-width:3;stroke-linejoin:round"
       sodipodi:nodetypes="ccssscccsssc"
       id="path3206" />
    <path
       inkscape:connector-curvature="0"
       d="m 398.02,269.1 c -2.32,0.66 -1.84,5.98 0.6,5.22 5.55,-1.85 4.93,-5.38 5.41,-14.91 0.04,-0.98 1.21,-1.98 2.3,-1.92 2.04,0.11 2.63,0.89 2.68,1.92 0.25,4.45 0.59,7.72 0.59,12.19 -0.18,5.73 -5.99,8.76 -12.21,8.85 -4.53,-0.16 -8.71,-3.48 -8.31,-8.69 0.42,-2.86 3.02,-6.87 6.55,-7.82 3.71,-0.99 8.7,3.85 6.92,6.74 -1.4,2.27 -3.47,3.58 -3.87,3.58 -2.94,0.03 -2.97,-4.5 -0.66,-5.16 z"
       style="color:#000000;fill:#ffffff;fill-rule:evenodd;stroke:#000000;stroke-width:3;stroke-linejoin:round"
       sodipodi:nodetypes="ccssscccsssc"
       id="path3208" />
    <path
       inkscape:connector-curvature="0"
       d="m 292.59,341.33 c -0.75,10.76 9.88,23.16 21.29,23.98 16.46,1.18 24.45,1.34 40.49,-0.77 9.82,-1.29 22.06,-9.58 22.06,-20.33 0,-17.45 -21.82,-16.55 -42.78,-17.27 -20.97,-0.72 -40.34,4.03 -41.06,14.39 z"
       style="color:#000000;fill:#ffffff;fill-rule:evenodd;stroke:#000000;stroke-width:3;stroke-linejoin:round"
       sodipodi:nodetypes="csssss"
       id="path3220" />
    <path
       inkscape:connector-curvature="0"
       d="m 311.2,344.4 c 6.47,0.38 12.71,-9.4 12.47,-16.12 -0.24,-6.71 -5.61,-11.13 -13.43,-10.74 -6.48,0.31 -12.71,2.49 -12.47,9.21 0.24,6.71 6.95,17.26 13.43,17.65 z"
       style="color:#000000;fill:#ffffff;fill-rule:evenodd;stroke:#000000;stroke-width:3;stroke-linejoin:round"
       sodipodi:nodetypes="cssss"
       id="path3222" />
    <path
       inkscape:connector-curvature="0"
       d="m 358.01,345.74 c 5.76,-0.53 12.47,-11.08 12.86,-18.23 0.38,-7.14 -5.57,-10.88 -11.32,-10.36 -5.76,0.53 -11.52,3.41 -11.9,10.56 -0.38,7.14 4.61,18.56 10.36,18.03 z"
       style="color:#000000;fill:#ffffff;fill-rule:evenodd;stroke:#000000;stroke-width:3;stroke-linejoin:round"
       sodipodi:nodetypes="cssss"
       id="path3226" />
    <path
       inkscape:connector-curvature="0"
       d="m 337.48,315.43 c -9.62,-0.06 -12.95,5.39 -13.81,12.85 -1.06,9.16 3.24,16.7 9.59,16.88 6.72,0.2 12.36,-8.94 14.2,-19.18 0.96,-5.34 -1.15,-10.5 -9.98,-10.55 z"
       style="color:#000000;fill:#ffffff;fill-rule:evenodd;stroke:#000000;stroke-width:3;stroke-linejoin:round"
       sodipodi:nodetypes="cssss"
       id="path3224" />
    <path
       inkscape:connector-curvature="0"
       d="m 364.15,317.15 -2.3,11.9"
       style="color:#000000;fill:#0d0fdb;fill-rule:evenodd;stroke:#000000;stroke-width:3;stroke-linejoin:round"
       id="path3228" />
    <path
       inkscape:connector-curvature="0"
       d="m 356.09,317.92 -0.38,9.98"
       style="fill:none;stroke:#000000;stroke-width:3;stroke-linejoin:round"
       id="path3230" />
    <path
       inkscape:connector-curvature="0"
       d="m 341.9,316.39 -4.23,11.89"
       style="fill:none;stroke:#000000;stroke-width:3;stroke-linejoin:round"
       id="path3232" />
    <path
       inkscape:connector-curvature="0"
       d="m 334.22,316.39 -1.53,10.74"
       style="fill:none;stroke:#000000;stroke-width:3;stroke-linejoin:round"
       id="path3234" />
    <path
       inkscape:connector-curvature="0"
       d="m 311.97,317.92 0,9.98"
       style="fill:none;stroke:#000000;stroke-width:3;stroke-linejoin:round"
       id="path3236" />
    <path
       inkscape:connector-curvature="0"
       d="m 305.06,319.07 1.92,9.59"
       style="fill:none;stroke:#000000;stroke-width:3;stroke-linejoin:round"
       id="path3238" />
  </g>
  <metadata
     id="metadata33">
    <rdf:RDF>
      <cc:Work>
        <dc:format>image/svg+xml</dc:format>
        <dc:type
           rdf:resource="http://purl.org/dc/dcmitype/StillImage" />
        <cc:license
           rdf:resource="http://creativecommons.org/licenses/publicdomain/" />
        <dc:publisher>
          <cc:Agent
             rdf:about="http://openclipart.org/">
            <dc:title>Openclipart</dc:title>
          </cc:Agent>
        </dc:publisher>
        <dc:title>Toponimia de Autlan</dc:title>
        <dc:date>2008-04-01T17:46:17</dc:date>
        <dc:description>Toponimia de la ciudad y municipio de Autlan de la Grana</dc:description>
        <dc:source>https://openclipart.org/detail/16090/toponimia-de-autlan-by-somar501-16090</dc:source>
        <dc:creator>
          <cc:Agent>
            <dc:title>somar501</dc:title>
          </cc:Agent>
        </dc:creator>
        <dc:subject>
          <rdf:Bag>
            <rdf:li>autlan</rdf:li>
            <rdf:li>escudo</rdf:li>
            <rdf:li>prehispanico</rdf:li>
            <rdf:li>toponimia</rdf:li>
          </rdf:Bag>
        </dc:subject>
      </cc:Work>
      <cc:License
         rdf:about="http://creativecommons.org/licenses/publicdomain/">
        <cc:permits
           rdf:resource="http://creativecommons.org/ns#Reproduction" />
        <cc:permits
           rdf:resource="http://creativecommons.org/ns#Distribution" />
        <cc:permits
           rdf:resource="http://creativecommons.org/ns#DerivativeWorks" />
      </cc:License>
    </rdf:RDF>
  </metadata>
</svg>
